<svg xmlns="http://www.w3.org/2000/svg" xmlns:xlink="http://www.w3.org/1999/xlink" width="191" height="30" viewBox="0 0 191 30"><defs><polygon id="a" points=".354 .236 13.07 .236 13.07 20.783 .354 20.783"/></defs><g fill="none" fill-rule="evenodd"><g transform="translate(45 3)"><path fill="#FFF" d="M0,7.71773438 L0,20.2519585 L3.47861297,20.2519585 L3.47861297,9.34241538 C3.47861297,8.90756841 3.79768217,8.58822767 4.23255871,8.58822767 L8.6967321,8.58822767 L8.6967321,5.54190082 L2.17398336,5.54190082 L0,7.71773438 Z M14.2047689,9.34241538 C14.2047689,8.90756841 14.5238381,8.58822767 14.9583153,8.58822767 L19.6549021,8.58822767 C20.0897786,8.58822767 20.4084485,8.90756841 20.4084485,9.34241538 L20.4084485,11.3735664 L14.2047689,11.3735664 L14.2047689,9.34241538 Z M20.611311,16.9150675 C20.379297,17.147279 20.2343381,17.205232 20.0027234,17.205232 L14.9583153,17.205232 C14.5238381,17.205232 14.2047689,16.8862909 14.2047689,16.4510443 L14.2047689,14.2168581 L23.8870614,14.2168581 L23.8870614,7.74691069 L21.7130781,5.54190082 L12.9001393,5.54190082 L10.7261559,7.71773438 L10.7261559,18.0757253 L12.9001393,20.2519585 L21.7418302,20.2519585 L24.2640343,17.7272082 L22.0029958,15.522598 L20.611311,16.9150675 Z M30.4968653,8.58822767 L35.0189424,8.58822767 C35.2509564,8.58822767 35.3959153,8.64618062 35.6279293,8.8783921 L36.8455037,10.0970028 L39.1352944,7.89199291 L36.7876001,5.54190082 L28.5253452,5.54190082 L26.3513618,7.71773438 L26.3513618,11.6057779 C26.3513618,12.5630008 26.9020457,13.3171885 28.2937305,13.5494 L35.0768461,14.739234 C35.3667638,14.7967873 35.5408741,14.9422692 35.5408741,15.2616099 L35.5408741,16.4510443 C35.5408741,16.8862909 35.2218049,17.205232 34.7869284,17.205232 L30.3519065,17.205232 C30.1198925,17.205232 29.9749336,17.147279 29.7429196,16.9150675 L28.3516342,15.580551 L26.0614441,17.7272082 L28.5836482,20.2519585 L36.7584486,20.2519585 L38.9324319,18.0757253 L38.9324319,13.8975173 C38.9324319,12.9402945 38.381748,12.1861067 36.9900633,11.9538953 L30.2069477,10.7644609 C29.91703,10.7061083 29.7429196,10.5610261 29.7429196,10.2416853 L29.7429196,9.34241538 C29.7429196,8.90756841 30.0619888,8.58822767 30.4968653,8.58822767 L30.4968653,8.58822767 Z M42.4401964,3.42362054 L46.0346167,3.42362054 L46.0346167,0 L42.4401964,0 L42.4401964,3.42362054 Z M40.5848829,5.54190082 L45.9771124,5.54190082 L45.9771124,20.2519585 L42.4981001,20.2519585 L42.4981001,9.2556858 C42.4981001,8.82003947 42.2664854,8.58822767 41.8316088,8.58822767 L40.5848829,8.58822767 L40.5848829,5.54190082 Z M58.2686641,16.4510443 C58.2686641,16.8862909 57.9495949,17.205232 57.5147184,17.205232 L52.818531,17.205232 C52.3836544,17.205232 52.0645852,16.8862909 52.0645852,16.4510443 L52.0645852,9.34241538 C52.0645852,8.90756841 52.3836544,8.58822767 52.818531,8.58822767 L57.5147184,8.58822767 C57.9495949,8.58822767 58.2686641,8.90756841 58.2686641,9.34241538 L58.2686641,16.4510443 Z M61.7472771,0 L58.1524574,0 L58.1524574,5.54190082 L50.760355,5.54190082 L48.5859723,7.71773438 L48.5859723,18.0757253 L50.760355,20.2519585 L59.5728944,20.2519585 L61.7472771,18.046549 L61.7472771,0 Z M67.83475,9.34241538 C67.83475,8.90756841 68.1538192,8.58822767 68.5886957,8.58822767 L73.2848831,8.58822767 C73.7197597,8.58822767 74.0388288,8.90756841 74.0388288,9.34241538 L74.0388288,11.3735664 L67.83475,11.3735664 L67.83475,9.34241538 Z M74.2416914,16.9150675 C74.0096773,17.147279 73.8647185,17.205232 73.6327045,17.205232 L68.5886957,17.205232 C68.1538192,17.205232 67.83475,16.8862909 67.83475,16.4510443 L67.83475,14.2168581 L77.5174418,14.2168581 L77.5174418,7.74691069 L75.3430591,5.54190082 L66.5305197,5.54190082 L64.356137,7.71773438 L64.356137,18.0757253 L66.5305197,20.2519585 L75.3722106,20.2519585 L77.8940153,17.7272082 L75.6329768,15.522598 L74.2416914,16.9150675 Z M89.8085942,16.4510443 C89.8085942,16.8862909 89.4899244,17.205232 89.0550478,17.205232 L84.3588604,17.205232 C83.9239839,17.205232 83.605314,16.8862909 83.605314,16.4510443 L83.605314,9.34241538 C83.605314,8.90756841 83.9239839,8.58822767 84.3588604,8.58822767 L89.0550478,8.58822767 C89.4899244,8.58822767 89.8085942,8.90756841 89.8085942,9.34241538 L89.8085942,16.4510443 Z M91.1136232,5.54190082 L82.3002851,5.54190082 L80.1263017,7.71773438 L80.1263017,18.0757253 L82.3002851,20.2519585 L91.1136232,20.2519585 L93.2876065,18.046549 L93.2876065,7.74691069 L91.1136232,5.54190082 Z"/><g transform="translate(107.022 4.952)"><mask id="b" fill="#fff"><use xlink:href="#a"/></mask><path fill="#FFF" d="M9.2344775,2.60236727 C8.45617229,2.11156573 7.30249156,2.08278909 6.52418635,2.08278909 C3.26600666,2.08278909 2.57395796,4.36253828 2.57395796,8.02796252 C2.57395796,11.1154559 3.43891901,13.7992771 6.52418635,13.7992771 C7.30249156,13.7992771 8.45617229,13.7705005 9.2344775,13.2509223 C10.6185749,12.3564484 10.7627351,10.3077117 10.7627351,8.02796252 C10.7627351,5.57475415 10.5031669,3.43928782 9.2344775,2.60236727 M10.5606712,14.9539397 C9.40778918,15.5886244 7.87913226,15.6461777 6.52418635,15.6461777 C4.99592876,15.6461777 3.90055103,15.0978229 2.71811813,13.6549942 L2.71811813,20.7832072 L0.353651664,20.7832072 L0.353651664,0.582407174 L2.51645362,0.582407174 L2.51645362,2.66032023 C3.52557485,0.842196265 5.11133677,0.235888495 7.12957922,0.235888495 C8.45617229,0.235888495 9.40778918,0.322618083 10.5606712,0.928526178 C12.9251377,2.22747163 13.0696972,5.54597751 13.0696972,8.02796252 C13.0696972,11.2309622 12.4926572,13.8860067 10.5606712,14.9539397" mask="url(#b)"/></g><path fill="#FFF" d="M126.433225 11.5078174 126.433225 20.2519185 124.097511 20.2519185 124.097511 5.53426702 126.231561 5.53426702 126.231561 8.62176045C127.009866 6.51547043 128.682284 5.21652498 131.162158 5.18774834L131.162158 7.35239098C128.192299 7.38116762 126.433225 9.57418722 126.433225 11.5078174M141.513218 7.58308369C140.734913 7.06350551 139.898704 7.03472887 139.004991 7.03472887 138.110878 7.03472887 137.27467 7.06350551 136.496364 7.58308369 135.285179 8.36245097 135.025611 10.5554706 135.025611 13.0370559 135.025611 15.5478175 135.314331 17.4526711 136.496364 18.2028621 137.27467 18.7224402 138.110878 18.7512169 139.004991 18.7512169 139.898704 18.7512169 140.734913 18.7224402 141.513218 18.2028621 142.781908 17.3947181 142.983972 15.461088 142.983972 13.0370559 142.983972 10.2956815 142.753156 8.36245097 141.513218 7.58308369M142.781908 19.8767032C141.599874 20.5401645 140.359937 20.5981175 139.004991 20.5981175 137.649646 20.5981175 136.409709 20.5401645 135.227675 19.8767032 132.949864 18.6357106 132.719048 15.4323113 132.719048 13.0370559 132.719048 10.5554706 132.863208 7.20778838 135.227675 5.9092426 136.409709 5.24538155 137.677999 5.18782828 139.004991 5.18782828 140.331185 5.18782828 141.599874 5.24538155 142.781908 5.9092426 145.146374 7.20778838 145.290534 10.5554706 145.290534 13.0370559 145.290534 15.4323113 145.059718 18.6357106 142.781908 19.8767032"/></g><path fill="#D22730" d="M0,0 L30,0 L30,30 L0,30 L0,0 Z"/><path fill="#FFF" d="M7.5,15 L15,15 L15,22.5 L7.5,22.5 L7.5,15 Z M7.5,15 L7.5,7.5 L22.5,7.5 L22.5,15 L7.5,15 Z"/></g></svg>